<mxfile host="app.diagrams.net" modified="2021-01-21T08:52:40.453Z" agent="5.0 (Macintosh; Intel Mac OS X 10_15_4) AppleWebKit/537.36 (KHTML, like Gecko) Chrome/87.0.4280.141 Safari/537.36" etag="C3qSxE5SGbioZYuwSRCn" version="13.8.7" type="github" pages="2">
  <diagram id="nNhhfkFAQo1hWtelN_tp" name="Page-1">
    <mxGraphModel dx="2681" dy="2139" grid="1" gridSize="10" guides="1" tooltips="1" connect="1" arrows="1" fold="1" page="1" pageScale="1" pageWidth="827" pageHeight="1169" math="0" shadow="0">
      <root>
        <mxCell id="0" />
        <mxCell id="1" parent="0" />
        <mxCell id="a1JGxc8DIsPlMVCJO6NG-25" value="" style="rounded=0;whiteSpace=wrap;html=1;" vertex="1" parent="1">
          <mxGeometry x="820" y="37.5" width="360" height="225" as="geometry" />
        </mxCell>
        <mxCell id="srl464yYl0dHhNBtkiof-3" value="菜品信息" style="rounded=1;whiteSpace=wrap;html=1;fillColor=#fff2cc;strokeColor=#d6b656;" vertex="1" parent="1">
          <mxGeometry x="865" y="125" width="120" height="40" as="geometry" />
        </mxCell>
        <mxCell id="srl464yYl0dHhNBtkiof-4" value="优惠信息" style="rounded=1;whiteSpace=wrap;html=1;fillColor=#dae8fc;strokeColor=#6c8ebf;" vertex="1" parent="1">
          <mxGeometry x="1015" y="125" width="120" height="40" as="geometry" />
        </mxCell>
        <mxCell id="srl464yYl0dHhNBtkiof-5" value="商户地址" style="rounded=1;whiteSpace=wrap;html=1;fillColor=#e1d5e7;strokeColor=#9673a6;" vertex="1" parent="1">
          <mxGeometry x="865" y="190" width="120" height="40" as="geometry" />
        </mxCell>
        <mxCell id="srl464yYl0dHhNBtkiof-7" value="UGC" style="rounded=1;whiteSpace=wrap;html=1;fillColor=#f5f5f5;strokeColor=#666666;fontColor=#333333;" vertex="1" parent="1">
          <mxGeometry x="1015" y="190" width="120" height="40" as="geometry" />
        </mxCell>
        <mxCell id="srl464yYl0dHhNBtkiof-9" value="&lt;font style=&quot;font-size: 28px&quot;&gt;数据来源&lt;/font&gt;" style="text;html=1;align=center;verticalAlign=middle;resizable=0;points=[];autosize=1;" vertex="1" parent="1">
          <mxGeometry x="935" y="290" width="130" height="30" as="geometry" />
        </mxCell>
        <mxCell id="srl464yYl0dHhNBtkiof-12" value="&lt;font style=&quot;font-size: 28px&quot;&gt;意图识别&lt;/font&gt;" style="text;html=1;align=center;verticalAlign=middle;resizable=0;points=[];autosize=1;" vertex="1" parent="1">
          <mxGeometry x="-340" y="390" width="130" height="30" as="geometry" />
        </mxCell>
        <mxCell id="srl464yYl0dHhNBtkiof-13" value="&lt;font style=&quot;font-size: 30px&quot;&gt;意图识别&lt;/font&gt;" style="rounded=1;whiteSpace=wrap;html=1;fillColor=#d5e8d4;strokeColor=#82b366;" vertex="1" parent="1">
          <mxGeometry x="-130" y="440" width="720" height="60" as="geometry" />
        </mxCell>
        <mxCell id="srl464yYl0dHhNBtkiof-14" value="&lt;font style=&quot;font-size: 17px&quot;&gt;实时Query&lt;/font&gt;" style="rounded=1;whiteSpace=wrap;html=1;fillColor=#ffe6cc;strokeColor=#d79b00;" vertex="1" parent="1">
          <mxGeometry x="650" y="452.5" width="100" height="35" as="geometry" />
        </mxCell>
        <mxCell id="srl464yYl0dHhNBtkiof-16" value="" style="endArrow=classic;html=1;strokeWidth=2;" edge="1" parent="1">
          <mxGeometry width="50" height="50" relative="1" as="geometry">
            <mxPoint x="640" y="469.29" as="sourcePoint" />
            <mxPoint x="610" y="469.58" as="targetPoint" />
          </mxGeometry>
        </mxCell>
        <mxCell id="a1JGxc8DIsPlMVCJO6NG-2" value="" style="shape=flexArrow;endArrow=classic;html=1;strokeWidth=2;width=17.142857142857142;endSize=4.671428571428572;fillColor=#1ba1e2;strokeColor=#006EAF;" edge="1" parent="1">
          <mxGeometry width="50" height="50" relative="1" as="geometry">
            <mxPoint x="229.99999999999994" y="420" as="sourcePoint" />
            <mxPoint x="230" y="375" as="targetPoint" />
            <Array as="points">
              <mxPoint x="230" y="395" />
            </Array>
          </mxGeometry>
        </mxCell>
        <mxCell id="a1JGxc8DIsPlMVCJO6NG-3" value="" style="rounded=1;whiteSpace=wrap;html=1;fillColor=#f5f5f5;strokeColor=#666666;fontColor=#333333;shadow=1;" vertex="1" parent="1">
          <mxGeometry x="-130" y="300" width="720" height="60" as="geometry" />
        </mxCell>
        <mxCell id="a1JGxc8DIsPlMVCJO6NG-8" value="&lt;font style=&quot;font-size: 18px&quot;&gt;优惠信息&lt;/font&gt;" style="rounded=1;whiteSpace=wrap;html=1;fillColor=#dae8fc;strokeColor=#6c8ebf;" vertex="1" parent="1">
          <mxGeometry x="380" y="305" width="140" height="50" as="geometry" />
        </mxCell>
        <mxCell id="a1JGxc8DIsPlMVCJO6NG-11" value="&lt;font style=&quot;font-size: 18px&quot;&gt;商户信息&lt;/font&gt;" style="rounded=1;whiteSpace=wrap;html=1;fillColor=#e1d5e7;strokeColor=#9673a6;" vertex="1" parent="1">
          <mxGeometry x="230" y="305" width="140" height="50" as="geometry" />
        </mxCell>
        <mxCell id="a1JGxc8DIsPlMVCJO6NG-12" value="&lt;font style=&quot;font-size: 18px&quot;&gt;菜品信息&lt;/font&gt;" style="rounded=1;whiteSpace=wrap;html=1;fillColor=#fff2cc;strokeColor=#d6b656;" vertex="1" parent="1">
          <mxGeometry x="80" y="305" width="140" height="50" as="geometry" />
        </mxCell>
        <mxCell id="a1JGxc8DIsPlMVCJO6NG-13" value="&lt;font style=&quot;font-size: 18px&quot;&gt;问答信息&lt;/font&gt;" style="rounded=1;whiteSpace=wrap;html=1;fillColor=#ffe6cc;strokeColor=#d79b00;" vertex="1" parent="1">
          <mxGeometry x="-70" y="305" width="140" height="50" as="geometry" />
        </mxCell>
        <mxCell id="a1JGxc8DIsPlMVCJO6NG-14" value="" style="endArrow=none;dashed=1;html=1;strokeWidth=2;" edge="1" parent="1">
          <mxGeometry width="50" height="50" relative="1" as="geometry">
            <mxPoint x="-320" y="280" as="sourcePoint" />
            <mxPoint x="690" y="280" as="targetPoint" />
          </mxGeometry>
        </mxCell>
        <mxCell id="a1JGxc8DIsPlMVCJO6NG-16" value="" style="whiteSpace=wrap;html=1;rounded=1;shadow=1;sketch=0;glass=0;fillColor=#f5f5f5;strokeColor=#666666;fontColor=#333333;" vertex="1" parent="1">
          <mxGeometry x="-170" width="790" height="250" as="geometry" />
        </mxCell>
        <mxCell id="a1JGxc8DIsPlMVCJO6NG-17" value="" style="shape=flexArrow;endArrow=classic;html=1;strokeWidth=2;width=17.142857142857142;endSize=4.671428571428572;" edge="1" parent="1">
          <mxGeometry width="50" height="50" relative="1" as="geometry">
            <mxPoint x="-275.71000000000004" y="250" as="sourcePoint" />
            <mxPoint x="-275.71000000000004" y="190" as="targetPoint" />
          </mxGeometry>
        </mxCell>
        <mxCell id="a1JGxc8DIsPlMVCJO6NG-18" value="&lt;font style=&quot;font-size: 28px&quot;&gt;展示层&lt;/font&gt;" style="text;html=1;align=center;verticalAlign=middle;resizable=0;points=[];autosize=1;" vertex="1" parent="1">
          <mxGeometry x="-325" y="130" width="100" height="30" as="geometry" />
        </mxCell>
        <mxCell id="a1JGxc8DIsPlMVCJO6NG-24" value="" style="endArrow=none;dashed=1;html=1;strokeWidth=2;" edge="1" parent="1">
          <mxGeometry width="50" height="50" relative="1" as="geometry">
            <mxPoint x="770" y="275" as="sourcePoint" />
            <mxPoint x="770" y="15" as="targetPoint" />
          </mxGeometry>
        </mxCell>
        <mxCell id="a1JGxc8DIsPlMVCJO6NG-26" value="" style="rounded=1;whiteSpace=wrap;html=1;fillColor=#ffe6cc;strokeColor=#d79b00;" vertex="1" parent="1">
          <mxGeometry x="-130" y="27.5" width="170" height="195" as="geometry" />
        </mxCell>
        <mxCell id="a1JGxc8DIsPlMVCJO6NG-27" value="" style="rounded=1;whiteSpace=wrap;html=1;fillColor=#fff2cc;strokeColor=#d6b656;" vertex="1" parent="1">
          <mxGeometry x="50" y="27.5" width="170" height="195" as="geometry" />
        </mxCell>
        <mxCell id="a1JGxc8DIsPlMVCJO6NG-28" value="&lt;span style=&quot;color: rgba(0 , 0 , 0 , 0) ; font-family: monospace ; font-size: 0px&quot;&gt;%3CmxGraphModel%3E%3Croot%3E%3CmxCell%20id%3D%220%22%2F%3E%3CmxCell%20id%3D%221%22%20parent%3D%220%22%2F%3E%3CmxCell%20id%3D%222%22%20value%3D%22%E9%97%AE%E7%AD%941%22%20style%3D%22rounded%3D1%3BwhiteSpace%3Dwrap%3Bhtml%3D1%3Bshadow%3D1%3Bglass%3D0%3Bsketch%3D0%3BgradientColor%3Dnone%3B%22%20vertex%3D%221%22%20parent%3D%221%22%3E%3CmxGeometry%20x%3D%22-92.5%22%20y%3D%2250%22%20width%3D%2295%22%20height%3D%2230%22%20as%3D%22geometry%22%2F%3E%3C%2FmxCell%3E%3CmxCell%20id%3D%223%22%20value%3D%22%E9%97%AE%E7%AD%941%22%20style%3D%22rounded%3D1%3BwhiteSpace%3Dwrap%3Bhtml%3D1%3Bshadow%3D1%3Bglass%3D0%3Bsketch%3D0%3BgradientColor%3Dnone%3B%22%20vertex%3D%221%22%20parent%3D%221%22%3E%3CmxGeometry%20x%3D%22-92.5%22%20y%3D%2290%22%20width%3D%2295%22%20height%3D%2230%22%20as%3D%22geometry%22%2F%3E%3C%2FmxCell%3E%3CmxCell%20id%3D%224%22%20value%3D%22%E9%97%AE%E7%AD%941%22%20style%3D%22rounded%3D1%3BwhiteSpace%3Dwrap%3Bhtml%3D1%3Bshadow%3D1%3Bglass%3D0%3Bsketch%3D0%3BgradientColor%3Dnone%3B%22%20vertex%3D%221%22%20parent%3D%221%22%3E%3CmxGeometry%20x%3D%22-92.5%22%20y%3D%22130%22%20width%3D%2295%22%20height%3D%2230%22%20as%3D%22geometry%22%2F%3E%3C%2FmxCell%3E%3CmxCell%20id%3D%225%22%20value%3D%22%E9%97%AE%E7%AD%941%22%20style%3D%22rounded%3D1%3BwhiteSpace%3Dwrap%3Bhtml%3D1%3Bshadow%3D1%3Bglass%3D0%3Bsketch%3D0%3BgradientColor%3Dnone%3B%22%20vertex%3D%221%22%20parent%3D%221%22%3E%3CmxGeometry%20x%3D%22-92.5%22%20y%3D%22170%22%20width%3D%2295%22%20height%3D%2230%22%20as%3D%22geometry%22%2F%3E%3C%2FmxCell%3E%3C%2Froot%3E%3C%2FmxGraphModel%3E&lt;/span&gt;" style="rounded=1;whiteSpace=wrap;html=1;fillColor=#e1d5e7;strokeColor=#9673a6;" vertex="1" parent="1">
          <mxGeometry x="230" y="27.5" width="170" height="195" as="geometry" />
        </mxCell>
        <mxCell id="a1JGxc8DIsPlMVCJO6NG-29" value="" style="rounded=1;whiteSpace=wrap;html=1;fillColor=#dae8fc;strokeColor=#6c8ebf;" vertex="1" parent="1">
          <mxGeometry x="413" y="27.5" width="170" height="195" as="geometry" />
        </mxCell>
        <mxCell id="a1JGxc8DIsPlMVCJO6NG-31" value="营业时间" style="rounded=1;whiteSpace=wrap;html=1;fillColor=#e1d5e7;strokeColor=#9673a6;" vertex="1" parent="1">
          <mxGeometry x="865" y="60" width="120" height="40" as="geometry" />
        </mxCell>
        <mxCell id="a1JGxc8DIsPlMVCJO6NG-33" value="问大家模块" style="rounded=1;whiteSpace=wrap;html=1;fillColor=#ffe6cc;strokeColor=#d79b00;" vertex="1" parent="1">
          <mxGeometry x="1015" y="60" width="120" height="40" as="geometry" />
        </mxCell>
        <mxCell id="a1JGxc8DIsPlMVCJO6NG-38" value="" style="shape=image;imageAspect=0;aspect=fixed;verticalLabelPosition=bottom;verticalAlign=top;rounded=1;shadow=1;glass=0;sketch=0;gradientColor=none;image=https://km.sankuai.com/api/file/cdn/492031105/497411182?contentType=1&amp;isNewContent=false&amp;isNewContent=false;" vertex="1" parent="1">
          <mxGeometry x="-220.00000000000003" y="-240" width="228.29" height="180" as="geometry" />
        </mxCell>
        <mxCell id="a1JGxc8DIsPlMVCJO6NG-40" value="问答1" style="rounded=1;whiteSpace=wrap;html=1;shadow=1;glass=0;sketch=0;gradientColor=none;" vertex="1" parent="1">
          <mxGeometry x="-92.5" y="50" width="95" height="30" as="geometry" />
        </mxCell>
        <mxCell id="a1JGxc8DIsPlMVCJO6NG-42" value="问答1" style="rounded=1;whiteSpace=wrap;html=1;shadow=1;glass=0;sketch=0;gradientColor=none;" vertex="1" parent="1">
          <mxGeometry x="-92.5" y="90" width="95" height="30" as="geometry" />
        </mxCell>
        <mxCell id="a1JGxc8DIsPlMVCJO6NG-43" value="问答1" style="rounded=1;whiteSpace=wrap;html=1;shadow=1;glass=0;sketch=0;gradientColor=none;" vertex="1" parent="1">
          <mxGeometry x="-92.5" y="130" width="95" height="30" as="geometry" />
        </mxCell>
        <mxCell id="a1JGxc8DIsPlMVCJO6NG-44" value="问答1" style="rounded=1;whiteSpace=wrap;html=1;shadow=1;glass=0;sketch=0;gradientColor=none;" vertex="1" parent="1">
          <mxGeometry x="-92.5" y="170" width="95" height="30" as="geometry" />
        </mxCell>
        <mxCell id="a1JGxc8DIsPlMVCJO6NG-46" value="问答1" style="rounded=1;whiteSpace=wrap;html=1;shadow=1;glass=0;sketch=0;gradientColor=none;" vertex="1" parent="1">
          <mxGeometry x="87.5" y="50" width="95" height="30" as="geometry" />
        </mxCell>
        <mxCell id="a1JGxc8DIsPlMVCJO6NG-47" value="问答1" style="rounded=1;whiteSpace=wrap;html=1;shadow=1;glass=0;sketch=0;gradientColor=none;" vertex="1" parent="1">
          <mxGeometry x="87.5" y="90" width="95" height="30" as="geometry" />
        </mxCell>
        <mxCell id="a1JGxc8DIsPlMVCJO6NG-48" value="问答1" style="rounded=1;whiteSpace=wrap;html=1;shadow=1;glass=0;sketch=0;gradientColor=none;" vertex="1" parent="1">
          <mxGeometry x="87.5" y="130" width="95" height="30" as="geometry" />
        </mxCell>
        <mxCell id="a1JGxc8DIsPlMVCJO6NG-49" value="问答1" style="rounded=1;whiteSpace=wrap;html=1;shadow=1;glass=0;sketch=0;gradientColor=none;" vertex="1" parent="1">
          <mxGeometry x="87.5" y="170" width="95" height="30" as="geometry" />
        </mxCell>
        <mxCell id="a1JGxc8DIsPlMVCJO6NG-50" value="问答1" style="rounded=1;whiteSpace=wrap;html=1;shadow=1;glass=0;sketch=0;gradientColor=none;" vertex="1" parent="1">
          <mxGeometry x="267.5" y="50" width="95" height="30" as="geometry" />
        </mxCell>
        <mxCell id="a1JGxc8DIsPlMVCJO6NG-51" value="问答1" style="rounded=1;whiteSpace=wrap;html=1;shadow=1;glass=0;sketch=0;gradientColor=none;" vertex="1" parent="1">
          <mxGeometry x="267.5" y="90" width="95" height="30" as="geometry" />
        </mxCell>
        <mxCell id="a1JGxc8DIsPlMVCJO6NG-52" value="问答1" style="rounded=1;whiteSpace=wrap;html=1;shadow=1;glass=0;sketch=0;gradientColor=none;" vertex="1" parent="1">
          <mxGeometry x="267.5" y="130" width="95" height="30" as="geometry" />
        </mxCell>
        <mxCell id="a1JGxc8DIsPlMVCJO6NG-53" value="问答1" style="rounded=1;whiteSpace=wrap;html=1;shadow=1;glass=0;sketch=0;gradientColor=none;" vertex="1" parent="1">
          <mxGeometry x="267.5" y="170" width="95" height="30" as="geometry" />
        </mxCell>
        <mxCell id="a1JGxc8DIsPlMVCJO6NG-54" value="问答1" style="rounded=1;whiteSpace=wrap;html=1;shadow=1;glass=0;sketch=0;gradientColor=none;" vertex="1" parent="1">
          <mxGeometry x="450.5" y="50" width="95" height="30" as="geometry" />
        </mxCell>
        <mxCell id="a1JGxc8DIsPlMVCJO6NG-55" value="问答1" style="rounded=1;whiteSpace=wrap;html=1;shadow=1;glass=0;sketch=0;gradientColor=none;" vertex="1" parent="1">
          <mxGeometry x="450.5" y="90" width="95" height="30" as="geometry" />
        </mxCell>
        <mxCell id="a1JGxc8DIsPlMVCJO6NG-56" value="问答1" style="rounded=1;whiteSpace=wrap;html=1;shadow=1;glass=0;sketch=0;gradientColor=none;" vertex="1" parent="1">
          <mxGeometry x="450.5" y="130" width="95" height="30" as="geometry" />
        </mxCell>
        <mxCell id="a1JGxc8DIsPlMVCJO6NG-57" value="问答1" style="rounded=1;whiteSpace=wrap;html=1;shadow=1;glass=0;sketch=0;gradientColor=none;" vertex="1" parent="1">
          <mxGeometry x="450.5" y="170" width="95" height="30" as="geometry" />
        </mxCell>
      </root>
    </mxGraphModel>
  </diagram>
  <diagram id="ouESuMIU7FAkAusGYBse" name="Page-2">
    <mxGraphModel dx="1298" dy="679" grid="1" gridSize="10" guides="1" tooltips="1" connect="1" arrows="1" fold="1" page="1" pageScale="1" pageWidth="827" pageHeight="1169" math="0" shadow="0">
      <root>
        <mxCell id="7p7uIYPq1V7ZtTiYsLZs-0" />
        <mxCell id="7p7uIYPq1V7ZtTiYsLZs-1" parent="7p7uIYPq1V7ZtTiYsLZs-0" />
      </root>
    </mxGraphModel>
  </diagram>
</mxfile>
